<?xml version="1.0" encoding="utf-8"?>
<!-- Generator: Adobe Illustrator 24.0.2, SVG Export Plug-In . SVG Version: 6.00 Build 0)  -->
<svg version="1.1" id="Layer_1" xmlns="http://www.w3.org/2000/svg" xmlns:xlink="http://www.w3.org/1999/xlink" x="0px" y="0px"
	 viewBox="0 0 801.6 647.2" style="enable-background:new 0 0 801.6 647.2;" xml:space="preserve">
<style type="text/css">
	.st0{fill:#0078A8;}
	.st1{fill:#FFFFFF;}
	.st2{fill:#E6E6E6;}
	.st3{fill:#FFB6B6;}
	.st4{fill:#2F2E41;}
	.st5{fill:#E0D03B;}
</style>
<g id="Group_6" transform="translate(-231.222 -125)">
	<path id="Path_80" class="st0" d="M1001,125H760.4c-23.9,0-44.6,16.6-49.9,39.9L589,704.2c-5,22.3,9,44.4,31.2,49.4
		c2.3,0.5,4.7,0.8,7.1,1l247.4,12.2c27.4,1.3,51.5-17.8,56.4-44.8l69-381.3l5.1,1.5l13.2-72.3l-5.3-1.3l19.3-106.4
		c3.1-17.1-8.3-33.5-25.4-36.6C1005,125.1,1003,125,1001,125L1001,125z"/>
	<path id="Path_81" class="st1" d="M792.1,136.6H764c-16.6,0-31,11.6-34.5,27.8L612.8,699.3c-2.6,11.8,4.9,23.5,16.7,26.1
		c1.1,0.2,2.2,0.4,3.2,0.5L879.3,742c14.4,0.9,27.2-9.1,29.8-23.3l99.6-552.8c2.4-13.5-6.5-26.4-20-28.9c-1.5-0.3-2.9-0.4-4.4-0.4
		h-26.6c-5.3,0-9.9,3.6-11.3,8.7l0,0c-1.2,4.5-5.3,7.7-10,7.7H809.7C800.5,153,792.8,145.8,792.1,136.6z"/>
	<path id="Path_93" class="st2" d="M928.4,510.5c1,0,1.9-0.7,2-1.6L985,208c0.1-0.6,0-1.2-0.4-1.6c-0.4-0.5-0.9-0.7-1.5-0.7
		L735,202.7h0c-0.9,0-1.7,0.7-1.9,1.6l-64.3,291.1c-0.1,0.6,0,1.2,0.4,1.6c0.3,0.5,0.9,0.8,1.5,0.8L928.4,510.5z"/>
	<path id="Path_94" class="st2" d="M713.1,530c-0.5,0-0.9,0.3-1,0.8l-2.3,10c-0.1,0.5,0.2,1.1,0.7,1.2c0.1,0,0.1,0,0.2,0l131.2,9.3
		c0.5,0,1-0.3,1.1-0.8l2.2-11.5c0.1-0.5-0.2-1.1-0.8-1.2c0,0-0.1,0-0.1,0L713.1,530L713.1,530z"/>
	<path id="Path_95" class="st2" d="M872.6,588.3c0.5,0,0.9-0.3,1.1-0.8l2.8-11.5c0.1-0.5-0.2-1.1-0.7-1.2c-0.1,0-0.1,0-0.2,0
		L708,563c-0.5,0-0.9,0.3-1,0.7l-3,10c-0.2,0.5,0.1,1.1,0.7,1.2c0.1,0,0.1,0,0.2,0L872.6,588.3z"/>
	<path id="Path_96" class="st2" d="M863.6,625.3c0.5,0,0.9-0.3,1.1-0.8l2.8-11.5c0.1-0.5-0.2-1.1-0.7-1.2c-0.1,0-0.1,0-0.2,0
		L699,600c-0.5,0-0.9,0.3-1,0.7l-3,10c-0.2,0.5,0.1,1.1,0.7,1.2c0.1,0,0.1,0,0.2,0L863.6,625.3z"/>
	<path id="Path_79" class="st2" d="M573,755.5c0,8.4-76.6,9.3-170.9,15.2c-94.2,5.9-170.9-6.8-170.9-15.2s77-25.2,170.9-15.2
		C496.4,750.5,573,747.2,573,755.5z"/>
	<path id="Path_97" class="st0" d="M786.4,688.5c0.5,0.1,0.9-0.3,1.1-0.8l6-24.1c0.1-0.5-0.2-1.1-0.7-1.2c-0.1,0-0.1,0-0.2,0
		l-102.9-8.7c-0.5,0-0.9,0.3-1.1,0.8l-5.1,23.1c-0.1,0.5,0.2,1.1,0.8,1.2c0,0,0.1,0,0.1,0L786.4,688.5z"/>
	<path id="Path_111" class="st3" d="M370.8,590.5c4.9-3.4,6.1-10,2.8-14.9c-0.4-0.5-0.8-1-1.2-1.5l4.2-93l-21.2,2.4l1.2,91
		c-4,4.5-3.6,11.3,0.9,15.2C361.2,593,366.7,593.4,370.8,590.5L370.8,590.5z"/>
	<path id="Path_112" class="st3" d="M409.5,748l12.1,2.1l11.9-45.6l-15.8-3.1L409.5,748z"/>
	<path id="Path_113" class="st4" d="M442.9,765.4l-37.9-6.7l2.6-14.7l23.3,4.1C438.9,749.6,444.4,757.3,442.9,765.4L442.9,765.4
		L442.9,765.4z"/>
	<path id="Path_114" class="st3" d="M376.4,754h12.3l5.8-47.3h-18.1L376.4,754z"/>
	<path id="Path_115" class="st4" d="M412.3,765.4l-38.5,0l0-14.9l23.6,0C405.6,750.5,412.3,757.2,412.3,765.4L412.3,765.4
		L412.3,765.4L412.3,765.4z"/>
	<path id="Path_116" class="st4" d="M427.5,737.1c-0.2,0-0.4,0-0.6,0l-14.4-1.2c-2.7-0.3-4.6-2.7-4.3-5.4c0-0.1,0-0.2,0-0.2
		l14.3-70.7l-9-47.5c-0.2-0.9-1-1.5-1.9-1.3c-0.7,0.1-1.3,0.7-1.3,1.5l-13.3,120.6c-0.3,2.6-2.6,4.6-5.2,4.4l-13.6-0.5
		c-2.5-0.2-4.4-2.2-4.5-4.6l1.1-145.8l70.5-8.8l4.9,76l0,0.1l-18,79.7C431.7,735.5,429.8,737.1,427.5,737.1z"/>
	<circle id="Ellipse_16" class="st3" cx="398.1" cy="396.3" r="24.6"/>
	<path id="Path_117" class="st5" d="M421.3,597.4c-3.8,0-7.6-1.1-10.9-3.1c-11.9-7.4-25.4-4.5-32.4-2.1c-1.4,0.5-3,0.3-4.2-0.5
		c-1.2-0.8-2.1-2.1-2.2-3.6l-12.7-113.6c-2.1-19,9.3-36.9,27.3-42.6l0,0c0.7-0.2,1.4-0.4,2.1-0.6c11.3-3.1,23.4-1,33,5.7
		c9.8,6.8,16.1,17.5,17.2,29.4L449,580.9c0.1,1.5-0.4,3-1.5,4C443.7,588.4,432.8,597.4,421.3,597.4z"/>
	<path id="Path_118" class="st5" d="M382.5,499l-28.7-3.2c-3.1-0.3-5.4-3.2-5.1-6.3c0-0.3,0.1-0.6,0.2-0.8l7.3-27.8
		c0.9-8.7,8.7-15.1,17.4-14.2c8.7,0.9,15.1,8.7,14.2,17.4c0,0.1,0,0.2,0,0.3l1.1,28.7c0.1,3.2-2.3,5.8-5.5,5.9
		C383.1,499,382.8,499,382.5,499L382.5,499z"/>
	<path id="Path_119" class="st3" d="M448.9,586.5c4.5-3.9,4.9-10.7,1-15.2c-0.4-0.5-0.9-0.9-1.4-1.3l-7.1-92.8l-20.8,4.7l12.2,90.4
		c-3.4,4.9-2.2,11.6,2.7,15C439.6,590.2,445.2,589.9,448.9,586.5L448.9,586.5z"/>
	<path id="Path_120" class="st5" d="M412.7,493.1c-1.2-1.1-1.9-2.7-1.8-4.4l1.1-28.7c-1-8.7,5.3-16.6,14-17.6
		c8.7-1,16.6,5.3,17.6,14l7.3,27.8c0.8,3.1-1,6.2-4.1,7c-0.3,0.1-0.5,0.1-0.8,0.2l-28.7,3.2C415.5,494.8,413.9,494.3,412.7,493.1
		L412.7,493.1z"/>
	<path id="Path_121" class="st4" d="M396.7,421.7c-0.4,0-0.9-0.1-1.3-0.2l-0.1,0c-21.6-3.3-26.4-15.8-27.4-21
		c-1.1-5.4,0.1-10.6,2.9-12.7c-1.5-4.8-1.3-9.1,0.7-12.7c3.5-6.3,11.1-8.4,12.1-8.7c6.1-4.5,13.3-1.5,14.6-0.9
		c11.7-4.3,16.2-0.7,17,0.1c5.2,0.9,8.4,3,9.5,6c2,5.7-4.3,12.9-4.6,13.2l-0.1,0.2l-9.4,0.4c-3.5,0.2-6.2,3.1-6,6.7
		c0,0.2,0,0.4,0.1,0.7l0,0c0.3,1.1,0.6,2.3,1,3.4c1.6,5,2.8,9.3,1.3,10.9c-0.7,0.6-1.7,0.8-2.6,0.5c-1.5-0.4-2.5-0.3-3,0.2
		c-0.8,0.9-0.5,3,0.7,6.1c0.8,2,0.4,4.2-1,5.8C399.8,421,398.3,421.7,396.7,421.7L396.7,421.7z"/>
</g>
</svg>
