<?xml version="1.0" encoding="utf-8"?>
<!-- Generator: Adobe Illustrator 24.0.2, SVG Export Plug-In . SVG Version: 6.00 Build 0)  -->
<svg version="1.1" id="f43251ed-adfc-45b7-8fc7-ccfd36078430"
	 xmlns="http://www.w3.org/2000/svg" xmlns:xlink="http://www.w3.org/1999/xlink" x="0px" y="0px" viewBox="0 0 602 605"
	 style="enable-background:new 0 0 602 605;" xml:space="preserve">
<style type="text/css">
	.st0{fill:#CACACA;}
	.st1{fill:#FF605C;}
	.st2{fill:#FFBD44;}
	.st3{fill:#00CA4E;}
	.st4{fill:#0078A8;}
	.st5{fill:#F0F0F0;}
	.st6{fill:#E4E4E4;}
	.st7{fill:#FFFFFF;}
	.st8{fill:#CBCBCB;}
	.st9{fill:#FFB6B6;}
	.st10{fill:#2F2E41;}
	.st11{fill:#E0D03B;}
	.st12{fill:#3F3D56;}
</style>
<path id="b71ccbba-e8b4-459a-9884-0222885cf9eb" class="st0" d="M599.2,36.6l-598.6,72c-0.1,0-0.1,0-0.2,0c-0.1,0-0.1-0.1-0.2-0.1
	c-0.1-0.1-0.1-0.1-0.1-0.2c0-0.1,0-0.2,0-0.3c0-0.1,0-0.2,0-0.3c0-0.1,0.1-0.2,0.1-0.3c0-0.1,0.1-0.1,0.2-0.2c0.1,0,0.1-0.1,0.2-0.1
	l598.6-73c0.2,0,0.4,0,0.6,0c0.2,0,0.3,0.1,0.5,0.2c0.1,0.1,0.2,0.2,0.3,0.4c0.1,0.1,0.1,0.3,0.1,0.5c0,0.2,0,0.3-0.1,0.5
	c-0.1,0.2-0.2,0.3-0.3,0.4c-0.1,0.1-0.3,0.2-0.5,0.3C599.5,36.5,599.4,36.6,599.2,36.6z"/>
<path id="fbe4cf51-249d-4766-a31e-46e69d2d3573" class="st0" d="M600.2,605L0.4,543.9c-0.1,0-0.1,0-0.2-0.1c-0.1,0-0.1-0.1-0.1-0.2
	c0-0.1-0.1-0.2-0.1-0.2c0-0.1,0-0.2,0-0.3c0-0.1,0.1-0.2,0.1-0.3c0-0.1,0.1-0.2,0.2-0.2c0.1-0.1,0.1-0.1,0.2-0.1c0.1,0,0.1,0,0.2,0
	l600.1,60.1c0.2,0,0.4,0.1,0.5,0.2c0.2,0.1,0.3,0.2,0.4,0.3c0.1,0.1,0.2,0.3,0.2,0.4c0,0.2,0,0.3,0,0.5c0,0.2-0.1,0.3-0.2,0.5
	c-0.1,0.1-0.2,0.3-0.4,0.4c-0.2,0.1-0.3,0.2-0.5,0.2C600.6,605,600.4,605,600.2,605z"/>
<path id="aefee446-e8cd-48bc-a6ae-8085c53a4aa5" class="st1" d="M12.4,80c0.8-0.1,1.6,0,2.3,0.3c0.7,0.3,1.4,0.9,1.9,1.5
	c0.6,0.7,1,1.6,1.3,2.5c0.3,1,0.5,2.1,0.5,3.2c0,1.1-0.2,2.2-0.5,3.3c-0.3,1-0.7,2-1.3,2.8c-0.5,0.8-1.1,1.5-1.9,2
	c-0.7,0.5-1.5,0.8-2.3,1c-0.8,0.1-1.6,0-2.3-0.3c-0.7-0.4-1.4-0.9-1.9-1.5c-0.6-0.7-1-1.6-1.2-2.5c-0.3-1-0.5-2.1-0.5-3.1
	c0-1.1,0.2-2.2,0.5-3.3c0.3-1,0.7-1.9,1.2-2.8c0.5-0.8,1.1-1.5,1.9-2C10.8,80.5,11.6,80.1,12.4,80z"/>
<path id="a4b9cd5e-e7a9-439c-9762-a8720b874a73" class="st2" d="M33.2,76.9c0.8-0.1,1.6,0,2.4,0.3c0.8,0.3,1.4,0.9,2,1.5
	c0.6,0.7,1,1.6,1.3,2.5c0.3,1.1,0.5,2.2,0.5,3.3c0,1.1-0.2,2.3-0.5,3.4c-0.3,1-0.7,2-1.3,2.9c-0.5,0.8-1.2,1.5-2,2.1
	c-0.7,0.5-1.5,0.9-2.4,1c-0.8,0.1-1.6,0-2.4-0.4c-0.8-0.4-1.4-0.9-1.9-1.6c-0.6-0.7-1-1.6-1.3-2.5c-0.3-1-0.5-2.1-0.5-3.2
	c0-1.1,0.2-2.3,0.5-3.4c0.3-1,0.7-2,1.3-2.9c0.5-0.8,1.2-1.5,1.9-2.1C31.5,77.4,32.3,77,33.2,76.9z"/>
<path id="a94385bb-e1a1-4da4-9c03-9925c8c84fb9" class="st3" d="M55,73.6c0.9-0.1,1.7,0,2.5,0.3c0.8,0.3,1.5,0.9,2.1,1.6
	c0.6,0.8,1.1,1.6,1.4,2.6c0.3,1.1,0.5,2.2,0.5,3.3c0,1.2-0.2,2.3-0.5,3.5c-0.3,1.1-0.8,2.1-1.4,3c-0.6,0.8-1.3,1.6-2.1,2.1
	c-0.7,0.5-1.6,0.9-2.5,1c-0.9,0.1-1.7,0-2.5-0.4c-0.8-0.4-1.5-0.9-2-1.6c-0.6-0.8-1.1-1.6-1.4-2.6c-0.3-1.1-0.5-2.2-0.5-3.3
	c0-1.2,0.2-2.3,0.5-3.4c0.3-1,0.8-2,1.4-2.9c0.5-0.8,1.2-1.6,2-2.2C53.2,74.1,54.1,73.7,55,73.6z"/>
<path id="e9fb7174-288f-46c4-ab91-f423808d7a61" class="st4" d="M566.9,5.9l-36.5,4.3c-0.3,0-0.7,0-1,0c-0.3-0.1-0.6-0.2-0.8-0.3
	c-0.2-0.1-0.4-0.3-0.6-0.5c-0.1-0.2-0.2-0.5-0.2-0.7c0-0.3,0.1-0.5,0.2-0.8c0.1-0.3,0.3-0.5,0.6-0.7c0.2-0.2,0.5-0.4,0.8-0.5
	c0.3-0.1,0.7-0.2,1-0.3l36.5-4.4c0.4,0,0.7,0,1.1,0c0.3,0.1,0.6,0.2,0.9,0.3c0.5,0.3,0.8,0.8,0.8,1.3c0,0.3-0.1,0.6-0.2,0.8
	c-0.1,0.3-0.3,0.5-0.6,0.7C568.3,5.5,567.6,5.8,566.9,5.9L566.9,5.9z"/>
<path id="f4f63b1d-19b6-4660-a2ee-fe9c59ab2b83" class="st4" d="M566.9,14l-36.5,5.1c-0.3,0-0.7,0-1,0c-0.3-0.1-0.6-0.2-0.8-0.4
	c-0.2-0.2-0.4-0.4-0.6-0.7c-0.1-0.3-0.2-0.6-0.2-0.9c0-0.3,0.1-0.7,0.2-0.9c0.1-0.3,0.3-0.6,0.6-0.8c0.2-0.3,0.5-0.5,0.8-0.6
	c0.3-0.2,0.7-0.3,1-0.3l36.5-5.2c0.4-0.1,0.7,0,1.1,0c0.3,0.1,0.6,0.2,0.9,0.4c0.2,0.2,0.5,0.4,0.6,0.7c0.1,0.3,0.2,0.6,0.2,0.9
	c0,0.3-0.1,0.7-0.2,1c-0.1,0.3-0.3,0.6-0.6,0.9C568.3,13.6,567.6,13.9,566.9,14L566.9,14z"/>
<path id="eb3f2030-579f-46ae-b7f9-06846804faba" class="st4" d="M566.9,23.1l-36.5,4.8c-0.3,0-0.7,0-1-0.1c-0.3-0.1-0.6-0.2-0.8-0.4
	c-0.5-0.4-0.8-1-0.8-1.6c0-0.3,0.1-0.7,0.2-0.9c0.1-0.3,0.3-0.6,0.6-0.8c0.2-0.3,0.5-0.5,0.8-0.6c0.3-0.2,0.7-0.3,1-0.3l36.5-4.9
	c0.4-0.1,0.7,0,1.1,0c0.3,0.1,0.6,0.2,0.9,0.4c0.2,0.2,0.5,0.4,0.6,0.7c0.1,0.3,0.2,0.6,0.2,0.9c0,0.3-0.1,0.7-0.2,1
	c-0.1,0.3-0.3,0.6-0.6,0.9C568.3,22.7,567.6,23,566.9,23.1L566.9,23.1z"/>
<path id="ed3b43a5-e52b-42db-ae2c-bbf19919dda8" class="st5" d="M393.4,107.3l176.3-14.9v105.1l-176.3,2.3V107.3z"/>
<path id="ac2eae0c-5080-4fe0-b0c3-f9d754c11698" class="st6" d="M530.7,244.9L426,242.9c-1.2,0-2.4-0.5-3.2-1.4
	c-0.4-0.4-0.7-0.9-1-1.4c-0.2-0.5-0.4-1.1-0.4-1.7c0-0.6,0.1-1.2,0.4-1.7c0.2-0.5,0.6-1,1-1.4c0.4-0.4,0.9-0.7,1.4-0.9
	c0.6-0.2,1.2-0.3,1.8-0.3l104.7,1.4c0.7,0,1.4,0.1,2.1,0.4c0.6,0.2,1.2,0.6,1.7,1.1c0.5,0.4,0.9,1,1.1,1.5c0.3,0.6,0.4,1.2,0.4,1.9
	c0,0.6-0.1,1.3-0.4,1.9c-0.3,0.6-0.7,1.1-1.1,1.5c-0.5,0.4-1.1,0.8-1.7,1C532.2,244.8,531.5,245,530.7,244.9L530.7,244.9z"/>
<path id="b3e575b2-619a-4403-8cc7-960fb099e65d" class="st6" d="M512.8,228.4l-70.9-0.6c-0.6,0-1.2-0.1-1.8-0.4
	c-0.6-0.2-1.1-0.6-1.5-1c-0.4-0.4-0.8-0.9-1-1.4c-0.5-1.1-0.5-2.4,0-3.5c0.2-0.5,0.6-1,1-1.4c0.4-0.4,0.9-0.7,1.5-1
	c0.6-0.2,1.2-0.4,1.8-0.3l70.9,0.1c0.7,0,1.4,0.1,2,0.4c0.6,0.2,1.2,0.6,1.7,1c0.5,0.4,0.9,0.9,1.1,1.5c0.5,1.2,0.5,2.5,0,3.7
	c-0.3,0.6-0.6,1.1-1.1,1.5c-0.5,0.4-1,0.8-1.7,1C514.1,228.3,513.5,228.4,512.8,228.4L512.8,228.4z"/>
<path id="b6f8ac03-6581-403f-aeca-47fca949167f" class="st5" d="M393.4,275.4l176.3,8v105.1l-176.3-20.7V275.4z"/>
<path id="a17e3a22-ba16-4351-b475-1e8c7f62d0cf" class="st6" d="M530.7,431L426,415.3c-0.6-0.1-1.2-0.3-1.8-0.6
	c-0.5-0.3-1-0.7-1.4-1.2c-0.4-0.5-0.7-1-1-1.5c-0.2-0.6-0.4-1.2-0.4-1.8c0-0.6,0.1-1.1,0.4-1.7c0.2-0.5,0.6-0.9,1-1.3
	c0.4-0.3,0.9-0.6,1.4-0.7c0.6-0.2,1.2-0.2,1.8-0.1l104.7,15c0.7,0.1,1.4,0.3,2.1,0.7c0.6,0.3,1.2,0.8,1.7,1.3
	c0.5,0.5,0.9,1.1,1.1,1.7c0.3,0.6,0.4,1.3,0.4,1.9c0,0.6-0.1,1.2-0.4,1.8c-0.3,0.5-0.7,1-1.1,1.4c-0.5,0.4-1.1,0.6-1.7,0.8
	C532.1,431.1,531.4,431.1,530.7,431L530.7,431z"/>
<path id="e3c2f847-4324-4f71-a395-b34127131530" class="st6" d="M512.8,412.1l-70.9-9.8c-0.6-0.1-1.3-0.3-1.8-0.6
	c-0.6-0.3-1.1-0.7-1.5-1.2c-0.4-0.5-0.8-1-1-1.6c-0.2-0.6-0.4-1.2-0.4-1.8c0-0.6,0.1-1.2,0.4-1.7c0.2-0.5,0.6-0.9,1-1.3
	c0.4-0.4,0.9-0.6,1.5-0.8c0.6-0.2,1.2-0.2,1.8-0.1l70.9,9.4c0.7,0.1,1.4,0.3,2,0.6c0.6,0.3,1.2,0.7,1.7,1.2c0.5,0.5,0.8,1,1.1,1.7
	c0.3,0.6,0.4,1.2,0.4,1.9c0,0.6-0.1,1.2-0.4,1.8c-0.3,0.5-0.6,1-1.1,1.4c-0.5,0.4-1.1,0.6-1.7,0.8
	C514.1,412.2,513.4,412.2,512.8,412.1L512.8,412.1z"/>
<path id="e0ac5af8-db2c-46e2-8c29-d7faefa5f799" class="st7" d="M290.9,368.7L13.7,333.2c-0.8-0.1-1.5-0.4-2.1-0.9
	c-0.7-0.5-1.2-1.1-1.7-1.8c-0.5-0.8-0.9-1.6-1.1-2.5c-0.3-1-0.4-2-0.4-3V149.9c0-1,0.1-2,0.4-3c0.3-0.9,0.6-1.7,1.1-2.5
	c0.4-0.7,1-1.3,1.7-1.7c0.6-0.4,1.3-0.7,2.1-0.8l277.2-22.7c2.4-0.2,4.8,0.7,6.5,2.4c0.9,0.9,1.5,1.9,2,3c0.5,1.2,0.7,2.5,0.7,3.8
	v231.5c0,1.3-0.2,2.6-0.7,3.8c-0.4,1.1-1.1,2.1-2,2.9c-0.8,0.8-1.8,1.4-2.9,1.7C293.3,368.7,292.1,368.8,290.9,368.7z"/>
<path id="ef100bb2-3038-4c55-8635-fb645de4c704" class="st4" d="M181.3,239.6c-0.7-1-1.6-1.9-2.5-2.7c-0.9-0.8-1.8-1.4-2.8-2
	c-1-0.5-2-1-3.1-1.3c-1.1-0.3-2.1-0.5-3.2-0.5c-1.1,0-2.2,0.1-3.2,0.3c-1.1,0.2-2.1,0.6-3.1,1c-1,0.5-1.9,1.1-2.8,1.7
	c-0.9,0.7-1.7,1.5-2.5,2.4l-74.6,89.1c-0.9,1.1-2,1.9-3.2,2.4c-1.1,0.5-2.4,0.7-3.6,0.5c-1.3-0.2-2.5-0.6-3.6-1.3
	c-1.2-0.8-2.3-1.9-3.2-3.1L59.9,312c-1.1-1.7-2.6-3.1-4.3-4.2c-1.4-1-3.1-1.5-4.8-1.7c-1.6-0.2-3.3,0.1-4.8,0.8
	c-1.6,0.8-3.1,1.9-4.2,3.4L24,332.9l249.9,31.6V360L181.3,239.6z"/>
<path id="b26a6d5f-b740-4ee8-acda-543250f0498e" class="st8" d="M290.9,372L13.7,335.7c-1-0.1-2-0.5-2.8-1.2
	c-0.9-0.7-1.7-1.5-2.3-2.5c-0.7-1-1.2-2.2-1.5-3.4c-0.4-1.3-0.6-2.6-0.6-4V150.1c0-1.3,0.2-2.7,0.6-3.9c0.3-1.2,0.8-2.3,1.5-3.3
	c0.6-0.9,1.4-1.7,2.3-2.3c0.8-0.6,1.8-0.9,2.8-1l277.2-23.5c3.2-0.3,6.4,0.9,8.7,3.2c1.1,1.1,2.1,2.5,2.7,4c0.7,1.6,1,3.4,1,5.1
	v232.1c0,1.7-0.3,3.5-1,5.1c-0.6,1.5-1.5,2.8-2.7,3.9c-1.1,1.1-2.5,1.9-3.9,2.3C294.2,372.1,292.5,372.2,290.9,372L290.9,372z
	 M13.7,144.6c-0.5,0-1,0.2-1.4,0.5c-0.4,0.3-0.8,0.7-1.1,1.2c-0.3,0.5-0.6,1.1-0.8,1.6c-0.2,0.6-0.3,1.3-0.3,2v175.4
	c0,0.7,0.1,1.3,0.3,2c0.2,0.6,0.4,1.2,0.8,1.7c0.3,0.5,0.7,0.9,1.1,1.2c0.4,0.3,0.9,0.5,1.4,0.6l277.2,34.7c0.8,0.1,1.6,0,2.3-0.2
	c0.7-0.2,1.4-0.6,1.9-1.2c0.6-0.5,1-1.2,1.3-1.9c0.3-0.8,0.5-1.6,0.5-2.5V128.7c0-0.9-0.2-1.7-0.5-2.5c-0.3-0.7-0.7-1.4-1.3-2
	c-1.1-1.1-2.7-1.7-4.3-1.6L13.7,144.6z"/>
<polygon class="st9" points="52.6,554.2 60.9,554.2 64.9,522 52.6,522 "/>
<path class="st10" d="M50.5,551.5l16.4,0h0c5.8,0,10.5,4.7,10.5,10.5v0.3l-26.9,0L50.5,551.5z"/>
<polygon class="st9" points="129.4,565.2 137.7,565.2 141.7,533 129.4,533 "/>
<path class="st10" d="M127.3,562.5l16.4,0h0c5.8,0,10.5,4.7,10.5,10.5v0.3l-26.9,0L127.3,562.5z"/>
<polygon class="st9" points="119.4,306.9 124.8,341.6 73.1,342.3 79.9,309 "/>
<path class="st11" d="M123.3,333.1l16.5,43.8l2,181.6h-13.9L94.5,412.6L63.9,543.7H50.3L59.9,395c0,0-2.8-32.1,11.6-51l3.5-10.1
	L123.3,333.1z"/>
<path class="st9" d="M52.7,367.3c5.4-1.5,8.6-7.1,7.2-12.5c-0.2-0.6-0.4-1.1-0.6-1.7l22-71.7L65,278.2l-20.1,70.2
	c-4.9,2.8-6.7,9-4,14C43.3,366.5,48.1,368.6,52.7,367.3z"/>
<path class="st12" d="M81.7,326.1c-0.3,0-0.6,0-0.9-0.1l0,0c-2-0.4-3.6-2.1-3.7-4.2c-0.5-7-3-19.2-7.5-36.2c-4-15.3,5.2-31,20.5-35
	c8.6-2.2,17.7-0.4,24.8,5.1c6.1,4.7,10.1,11.7,10.9,19.3c2.2,19.6-2,39.3-3.9,46.9c-0.5,2-2.3,3.5-4.4,3.5L81.7,326.1
	C81.8,326.1,81.7,326.1,81.7,326.1z"/>
<path class="st9" d="M181.2,263.1c-0.2,0.5-0.4,1-0.5,1.5l-44.6,15.1l-8.6-7.5l-13.1,11.5l14,14.8c2.3,2.5,6,3.1,9,1.6l47.7-24.4
	c4.7,2.9,10.8,1.4,13.7-3.3s1.4-10.8-3.3-13.7s-10.8-1.4-13.7,3.3C181.6,262.4,181.4,262.7,181.2,263.1L181.2,263.1z"/>
<path class="st12" d="M134.5,280.6l-16.3,14.2c-1.8,1.6-4.5,1.4-6-0.4c-0.1-0.2-0.3-0.3-0.4-0.5l-11.6-18.1
	c-4.3-5-3.7-12.5,1.2-16.7c4.9-4.3,12.4-3.7,16.7,1.2l16.3,13.9c1.8,1.5,2,4.2,0.5,6C134.8,280.3,134.7,280.4,134.5,280.6
	L134.5,280.6z"/>
<path class="st12" d="M78.6,299.8l-20.1-7.9c-2.2-0.9-3.3-3.3-2.4-5.5c0.1-0.2,0.2-0.4,0.3-0.6l10.7-18.7c2.4-6.1,9.3-9,15.4-6.6
	c6.1,2.4,9,9.3,6.6,15.4l-4.8,20.9c-0.5,2.3-2.8,3.7-5.1,3.2C79,299.9,78.8,299.8,78.6,299.8z"/>
<circle class="st9" cx="93.5" cy="223.4" r="21.8"/>
<path class="st10" d="M122.8,216.1H88.1v-15.1c7.6-3,15.1-5.6,19.6,0C116,200.9,122.8,207.7,122.8,216.1L122.8,216.1z"/>
<circle class="st10" cx="86.1" cy="221.1" r="25"/>
<circle class="st10" cx="68.1" cy="202.1" r="16"/>
</svg>
